<svg width="31" height="25" viewBox="0 0 31 25" fill="none" xmlns="http://www.w3.org/2000/svg">
<path d="M1.10714 4.59184H29.8929C30.5043 4.59184 31 4.13501 31 3.57143V1.02041C31 0.456824 30.5043 0 29.8929 0H1.10714C0.495654 0 0 0.456824 0 1.02041V3.57143C0 4.13501 0.495654 4.59184 1.10714 4.59184ZM1.10714 14.7959H29.8929C30.5043 14.7959 31 14.3391 31 13.7755V11.2245C31 10.6609 30.5043 10.2041 29.8929 10.2041H1.10714C0.495654 10.2041 0 10.6609 0 11.2245V13.7755C0 14.3391 0.495654 14.7959 1.10714 14.7959ZM1.10714 25H29.8929C30.5043 25 31 24.5432 31 23.9796V21.4286C31 20.865 30.5043 20.4082 29.8929 20.4082H1.10714C0.495654 20.4082 0 20.865 0 21.4286V23.9796C0 24.5432 0.495654 25 1.10714 25Z" fill="white"/>
</svg>
